<?xml version="1.0" encoding="UTF-8" standalone="no"?>
<!-- Generated by IcoMoon.io -->

<svg
   xmlns:dc="http://purl.org/dc/elements/1.1/"
   xmlns:cc="http://creativecommons.org/ns#"
   xmlns:rdf="http://www.w3.org/1999/02/22-rdf-syntax-ns#"
   xmlns:svg="http://www.w3.org/2000/svg"
   xmlns="http://www.w3.org/2000/svg"
   xmlns:sodipodi="http://sodipodi.sourceforge.net/DTD/sodipodi-0.dtd"
   xmlns:inkscape="http://www.inkscape.org/namespaces/inkscape"
   version="1.1"
   width="32"
   height="32"
   viewBox="0 0 32 32"
   id="svg2"
   inkscape:version="0.91 r13725"
   sodipodi:docname="arson.svg"
   inkscape:export-filename="C:\Users\Christoph\Documents\CrimeWatch\www\img\arson.png"
   inkscape:export-xdpi="135"
   inkscape:export-ydpi="135">
  <metadata
     id="metadata10">
    <rdf:RDF>
      <cc:Work
         rdf:about="">
        <dc:format>image/svg+xml</dc:format>
        <dc:type
           rdf:resource="http://purl.org/dc/dcmitype/StillImage" />
        <dc:title />
      </cc:Work>
    </rdf:RDF>
  </metadata>
  <defs
     id="defs8" />
  <sodipodi:namedview
     pagecolor="#ffffff"
     bordercolor="#666666"
     borderopacity="1"
     objecttolerance="10"
     gridtolerance="10"
     guidetolerance="10"
     inkscape:pageopacity="0"
     inkscape:pageshadow="2"
     inkscape:window-width="1280"
     inkscape:window-height="657"
     id="namedview6"
     showgrid="false"
     inkscape:zoom="10.429825"
     inkscape:cx="2.9973244"
     inkscape:cy="5.3449952"
     inkscape:window-x="-8"
     inkscape:window-y="-8"
     inkscape:window-maximized="1"
     inkscape:current-layer="layer1" />
  <g
     inkscape:groupmode="layer"
     id="layer2"
     inkscape:label="Layer 2">
    <circle
       style="fill:#ffffff;fill-opacity:1"
       id="path4276"
       cx="15.779661"
       cy="10.661016"
       r="7.9152541" />
  </g>
  <g
     inkscape:groupmode="layer"
     id="layer1"
     inkscape:label="Layer 1">
    <path
       d="M 16,0 C 10.477,0 6,4.477 6,10 6,20 16,32 16,32 16,32 26,20 26,10 26,4.477 21.523,0 16,0 Z m 0,16.125 c -3.383,0 -6.125,-2.742 -6.125,-6.125 0,-3.383 2.742,-6.125 6.125,-6.125 3.383,0 6.125,2.742 6.125,6.125 0,3.383 -2.742,6.125 -6.125,6.125 z"
       id="path4"
       style="fill:#b33d33;fill-opacity:1"
       inkscape:connector-curvature="0"
       sodipodi:nodetypes="sscsssssss" />
    <g
       id="g4550"
       transform="matrix(0.08444839,0,0,0.08444839,10.867505,3.998447)"
       style="fill:#444444;fill-opacity:1">
      <g
         id="g4498"
         style="fill:#444444;fill-opacity:1">
        <g
           id="g4500"
           style="fill:#444444;fill-opacity:1">
          <path
             id="path4502"
             d="M 13.434,60.649 4.312,63.558 8.741,77.454 24.602,72.396 21.479,62.6 13.434,60.649 Z m 5.125,11.272 -5.348,-2.762 -2.764,5.348 -0.722,-0.372 2.767,-5.349 -5.351,-2.764 0.371,-0.719 5.35,2.763 2.764,-5.349 0.719,0.372 -2.764,5.348 5.348,2.764 -0.37,0.72 z"
             inkscape:connector-curvature="0"
             style="fill:#444444;fill-opacity:1" />
          <path
             id="path4504"
             d="m 112.193,102.571 -0.215,0.108 -1.59,-0.66 c 1.163,-0.352 2.219,-0.834 3.158,-1.436 l 8.291,-1.212 -0.15,-1.04 -6.475,0.945 c 2.348,-2.248 3.6,-5.507 3.521,-9.5 -0.147,-7.67 -5.504,-12.859 -5.731,-13.077 l -3.324,-3.173 1.142,4.221 c -0.141,-0.291 -0.293,-0.586 -0.457,-0.886 -2.416,-4.418 -8.494,-7.596 -8.752,-7.729 l -4.412,-2.281 2.753,4.134 c 0.026,0.038 2.522,3.854 1.288,7.687 -0.484,1.502 -1.235,3.057 -2.03,4.702 -1.513,3.128 -3.076,6.363 -3.076,9.816 0,3.405 2.118,6.452 5.194,8.115 l -8.297,1.214 0.152,1.04 9.995,-1.462 c 1.065,0.343 2.2,0.54 3.378,0.54 l 0,0 c 0.447,0 0.902,-0.03 1.342,-0.088 0.25,-0.033 0.487,-0.082 0.729,-0.124 l 2.118,0.878 -5.214,2.64 -3.104,-3.266 -0.762,0.724 2.885,3.038 -2.74,1.391 0.476,0.938 3.022,-1.531 1.354,1.425 0.761,-0.725 -1.137,-1.194 5.738,-2.905 5.593,2.319 0.403,-0.973 -5.701,-2.364 -0.126,-0.249 z m -8.375,-1.628 c -3.555,-1.07 -6.399,-4.126 -6.399,-7.752 0,-4.899 3.604,-9.655 5.044,-14.125 1.439,-4.467 -1.439,-8.792 -1.439,-8.792 0,0 5.957,3.081 8.215,7.205 3.315,6.057 1.152,9.66 1.152,9.66 0,0 1.674,-1.993 2.092,-3.962 0.502,-2.379 -0.361,-5.548 -0.361,-5.548 0,0 5.191,4.95 5.331,12.173 0.097,5.006 -1.991,8.134 -4.908,9.866 l -8.727,1.275 z"
             inkscape:connector-curvature="0"
             style="fill:#444444;fill-opacity:1" />
          <path
             id="path4506"
             d="m 116.166,89.828 c -0.059,-3.093 -1.13,-5.748 -2.262,-7.703 -0.025,0.445 -0.077,0.892 -0.168,1.317 -0.479,2.26 -0.86,3.02 -2.363,4.522 -1.245,0.991 -2.768,-0.332 -2.083,-1.487 0.438,-0.743 1.692,-3.132 -1.179,-8.382 -0.969,-1.767 -2.735,-3.354 -4.33,-4.54 0.425,1.697 0.592,3.774 -0.098,5.904 -0.539,1.673 -1.361,3.38 -2.162,5.031 -1.388,2.868 -2.818,5.835 -2.818,8.699 0,3.664 3.669,6.878 7.854,6.878 l 0,0 c 0.338,0 0.678,-0.021 1.01,-0.064 2.639,-0.347 8.76,-2.035 8.599,-10.175 z"
             inkscape:connector-curvature="0"
             style="fill:#444444;fill-opacity:1" />
          <path
             id="path4508"
             d="M 58.008,31.402 C 64.54,32.317 70.577,27.764 71.493,21.232 72.409,14.701 67.853,8.664 61.32,7.749 54.792,6.834 48.753,11.387 47.839,17.919 46.923,24.45 51.476,30.487 58.008,31.402 Z"
             inkscape:connector-curvature="0"
             style="fill:#444444;fill-opacity:1" />
          <path
             id="path4510"
             d="M 85.443,53.713 66.602,44.66 57.476,33.26 c -0.1,-0.123 -0.208,-0.248 -0.321,-0.364 -0.55,-0.565 -1.206,-0.958 -1.901,-1.211 -0.938,-0.688 -1.997,-1.247 -3.171,-1.618 -1.873,-0.594 -3.786,-0.649 -5.579,-0.266 -0.73,-0.112 -1.494,-0.07 -2.248,0.162 l -14.031,4.321 -0.431,0.133 c -0.903,0.28 -1.704,0.901 -2.192,1.8 l -5.002,9.205 -2.471,4.636 -1.226,2.357 -0.615,1.221 -0.327,0.682 -0.206,0.453 c -0.164,0.384 -0.288,0.795 -0.363,1.197 -0.033,0.218 -0.037,0.433 -0.026,0.645 C 12.216,58.255 0,62.15 0,62.15 l 6.035,18.948 22.422,-7.146 c 0.249,-0.151 0.498,-0.308 0.751,-0.457 0.362,-0.215 0.726,-0.425 1.09,-0.636 l -0.228,6.577 -14.124,24.077 c -0.927,1.592 -0.507,3.669 1.024,4.753 1.62,1.148 3.864,0.763 5.012,-0.856 L 38.937,83.457 c 0.37,-0.525 0.63,-1.161 0.71,-1.845 l 0.05,-0.41 0.942,-7.813 c 0.174,0.02 0.345,0.036 0.52,0.047 l 11.906,13.862 -5.014,22.531 c -0.396,1.807 0.647,3.659 2.447,4.216 1.897,0.586 3.909,-0.478 4.494,-2.374 L 62.54,87.229 C 62.913,86 62.73,84.596 61.916,83.478 L 61.697,83.177 50.989,68.467 c 0.524,-0.807 0.955,-1.692 1.259,-2.654 l 5.599,-17.682 2.766,2.846 0.293,0.303 c 0.342,0.35 0.765,0.631 1.252,0.813 l 20.687,7.721 c 1.587,0.587 3.404,-0.114 4.151,-1.672 0.795,-1.651 0.098,-3.635 -1.553,-4.429 z m -63.518,5.77 c 0.4,0.316 0.849,0.584 1.332,0.776 0.056,0.179 0.116,0.366 0.18,0.564 L 20.216,59.71 c 0.601,0.085 1.184,-0.01 1.709,-0.227 z m -4.266,-1.69 c 0.289,0.63 0.763,1.161 1.371,1.509 L 16.102,58.29 c 0.598,-0.19 1.12,-0.357 1.557,-0.497 z M 8.167,78.565 3.2,62.984 14.008,59.539 22.07,61.546 25.714,72.971 8.167,78.565 Z M 31.372,59.203 c -0.492,1.551 -0.608,3.126 -0.423,4.642 -0.235,0.582 -0.383,1.211 -0.404,1.876 l -0.147,4.244 -0.457,-1.435 c -0.284,-0.892 -1.237,-1.383 -2.127,-1.1 -0.117,0.037 -0.226,0.086 -0.325,0.145 0,0 -1.321,-4.111 -2.237,-6.976 l -2.093,-1.98 c 0.416,-0.472 0.703,-1.062 0.797,-1.73 0.004,0.202 -0.037,0.412 -0.117,0.595 l -0.03,0.066 0.018,-0.028 0.034,-0.055 0.067,-0.111 0.286,-0.467 0.665,-1.052 1.398,-2.148 2.877,-4.316 4.738,-6.994 3,-0.611 -5.52,17.435 z"
             inkscape:connector-curvature="0"
             style="fill:#444444;fill-opacity:1" />
          <path
             id="path4512"
             d="m 96.947,54.36 c 0.521,-0.152 0.92,-0.456 1.195,-0.736 -0.074,0.017 -0.152,0.027 -0.229,0.032 -0.404,0.023 -0.551,-0.006 -0.872,-0.189 -0.226,-0.165 -0.072,-0.482 0.155,-0.42 0.146,0.04 0.605,0.142 1.359,-0.585 0.254,-0.245 0.439,-0.615 0.565,-0.938 -0.267,0.15 -0.608,0.273 -1.001,0.255 -0.309,-0.015 -0.633,-0.074 -0.948,-0.133 -0.548,-0.102 -1.112,-0.208 -1.597,-0.075 -0.584,0.159 -0.944,0.854 -0.82,1.523 l -6.578,2.285 0.275,0.795 6.669,-2.314 c 0.318,0.398 0.875,0.78 1.827,0.5 z"
             inkscape:connector-curvature="0"
             style="fill:#444444;fill-opacity:1" />
        </g>
      </g>
      <g
         id="g4514"
         style="fill:#444444;fill-opacity:1" />
      <g
         id="g4516"
         style="fill:#444444;fill-opacity:1" />
      <g
         id="g4518"
         style="fill:#444444;fill-opacity:1" />
      <g
         id="g4520"
         style="fill:#444444;fill-opacity:1" />
      <g
         id="g4522"
         style="fill:#444444;fill-opacity:1" />
      <g
         id="g4524"
         style="fill:#444444;fill-opacity:1" />
      <g
         id="g4526"
         style="fill:#444444;fill-opacity:1" />
      <g
         id="g4528"
         style="fill:#444444;fill-opacity:1" />
      <g
         id="g4530"
         style="fill:#444444;fill-opacity:1" />
      <g
         id="g4532"
         style="fill:#444444;fill-opacity:1" />
      <g
         id="g4534"
         style="fill:#444444;fill-opacity:1" />
      <g
         id="g4536"
         style="fill:#444444;fill-opacity:1" />
      <g
         id="g4538"
         style="fill:#444444;fill-opacity:1" />
      <g
         id="g4540"
         style="fill:#444444;fill-opacity:1" />
      <g
         id="g4542"
         style="fill:#444444;fill-opacity:1" />
    </g>
  </g>
</svg>
