<?xml version="1.0" encoding="UTF-8" standalone="no"?>
<!-- Generated by IcoMoon.io -->

<svg
   xmlns:dc="http://purl.org/dc/elements/1.1/"
   xmlns:cc="http://creativecommons.org/ns#"
   xmlns:rdf="http://www.w3.org/1999/02/22-rdf-syntax-ns#"
   xmlns:svg="http://www.w3.org/2000/svg"
   xmlns="http://www.w3.org/2000/svg"
   xmlns:sodipodi="http://sodipodi.sourceforge.net/DTD/sodipodi-0.dtd"
   xmlns:inkscape="http://www.inkscape.org/namespaces/inkscape"
   version="1.1"
   width="32"
   height="32"
   viewBox="0 0 32 32"
   id="svg2"
   inkscape:version="0.91 r13725"
   sodipodi:docname="robbery.svg"
   inkscape:export-filename="C:\Users\Christoph\Documents\CrimeWatch\www\img\assault.png"
   inkscape:export-xdpi="90"
   inkscape:export-ydpi="90">
  <metadata
     id="metadata10">
    <rdf:RDF>
      <cc:Work
         rdf:about="">
        <dc:format>image/svg+xml</dc:format>
        <dc:type
           rdf:resource="http://purl.org/dc/dcmitype/StillImage" />
        <dc:title></dc:title>
      </cc:Work>
    </rdf:RDF>
  </metadata>
  <defs
     id="defs8" />
  <sodipodi:namedview
     pagecolor="#ffffff"
     bordercolor="#666666"
     borderopacity="1"
     objecttolerance="10"
     gridtolerance="10"
     guidetolerance="10"
     inkscape:pageopacity="0"
     inkscape:pageshadow="2"
     inkscape:window-width="1280"
     inkscape:window-height="657"
     id="namedview6"
     showgrid="false"
     inkscape:zoom="14.75"
     inkscape:cx="3.6052405"
     inkscape:cy="16.467549"
     inkscape:window-x="-8"
     inkscape:window-y="-8"
     inkscape:window-maximized="1"
     inkscape:current-layer="layer1" />
  <g
     inkscape:groupmode="layer"
     id="layer2"
     inkscape:label="Layer 2">
    <circle
       style="fill:#ffffff;fill-opacity:1"
       id="path4276"
       cx="15.779661"
       cy="10.661016"
       r="7.9152541" />
  </g>
  <g
     inkscape:groupmode="layer"
     id="layer1"
     inkscape:label="Layer 1">
    <path
       d="M 16,0 C 10.477,0 6,4.477 6,10 6,20 16,32 16,32 16,32 26,20 26,10 26,4.477 21.523,0 16,0 Z m 0,16.125 c -3.383,0 -6.125,-2.742 -6.125,-6.125 0,-3.383 2.742,-6.125 6.125,-6.125 3.383,0 6.125,2.742 6.125,6.125 0,3.383 -2.742,6.125 -6.125,6.125 z"
       id="path4"
       style="fill:#b33d33;fill-opacity:1"
       inkscape:connector-curvature="0"
       sodipodi:nodetypes="sscsssssss" />
    <g
       id="g4821"
       transform="translate(-36.477178,-47.186769)"
       style="fill:#444444;fill-opacity:1">
      <g
         id="g4781"
         style="fill:#444444;fill-opacity:1">
        <path
           id="path4783"
           d="m 54.947508,54.89247 c -0.06229,-0.0398 -0.134203,-0.0512 -0.20161,-0.0391 -0.0061,-0.0318 -0.0245,0.0512 -0.05962,0.024 -0.176495,-0.13703 -0.366426,-0.31658 -0.583381,-0.36315 -0.01489,-0.003 -0.03008,-0.006 -0.04519,-0.009 0.504142,0.0108 0.947823,-0.35627 1.019429,-0.86782 0.07733,-0.55162 -0.307188,-1.06149 -0.858735,-1.13874 -0.551701,-0.0773 -1.061491,0.30726 -1.138746,0.85881 -0.03054,0.21795 0.01183,0.42887 0.107256,0.60964 -0.138708,-0.0897 -0.269171,-0.15168 -0.269171,-0.15168 0,0 -0.581625,-0.22742 -1.086301,-0.21207 -0.778579,-0.0615 -2.028016,0.5504 -2.192602,1.3557 -0.174435,0.85469 0.299171,1.67311 1.057902,1.82801 0.565518,0.0743 0.960648,-0.26429 1.232109,-0.70034 l -0.239704,0.75721 c -0.04153,0.13084 -0.05145,0.26398 -0.03565,0.39184 -0.02,0.0492 -0.03237,0.10237 -0.03428,0.15848 l -0.03993,1.15822 -1.192641,2.03343 c -0.07825,0.13436 -0.0429,0.30986 0.08642,0.40139 0.136875,0.0969 0.326348,0.0644 0.423222,-0.0724 l 1.431887,-2.02282 c 0.03115,-0.0444 0.05306,-0.0981 0.06,-0.15573 l 0.0044,-0.0347 0.07947,-0.6598 c 0.0145,0.002 0.02924,0.003 0.04374,0.004 l 1.005535,1.17066 -0.423604,1.90259 c -0.03344,0.1526 0.05489,0.30909 0.206725,0.35604 0.160235,0.0495 0.330089,-0.0402 0.379709,-0.20046 l 0.637429,-2.06405 c 0.0313,-0.10367 0.01595,-0.22238 -0.05267,-0.31665 l -0.01847,-0.0254 -0.904462,-1.24233 c 0.04412,-0.0682 0.08061,-0.14291 0.106339,-0.22406 l 0.500478,-1.58044 0.268178,0.22978 0.0442,0.0382 c 0.02985,0.0253 0.06451,0.0457 0.103286,0.0598 0.174282,0.0633 0.367037,-0.0268 0.430322,-0.20115 l 0.262071,-0.72201 c 0.04359,-0.12123 -1.53e-4,-0.26108 -0.113287,-0.33345 z m -3.495171,0.25062 c -0.04931,-0.0542 -0.146876,-0.15741 -0.323982,-0.25352 -0.212909,-0.11573 -0.326425,-0.0723 -0.355281,0.003 -0.03756,0.0985 0.04603,0.20314 0.260621,0.402 0.254666,0.23413 0.361006,0.41063 0.296729,0.57888 -0.05695,0.14947 -0.262529,0.2068 -0.559869,0.0842 l -0.07512,0.19672 -0.174205,-0.0946 0.0729,-0.19108 c -0.159777,-0.089 -0.31276,-0.21314 -0.391465,-0.31299 l 0.114813,-0.0907 c 0.08222,0.0995 0.212299,0.21345 0.367266,0.29765 0.196344,0.10657 0.358869,0.10115 0.400016,-0.007 0.0397,-0.10397 -0.04359,-0.2268 -0.22665,-0.39475 -0.253445,-0.22886 -0.394519,-0.41055 -0.331692,-0.57513 0.06,-0.15696 0.268789,-0.18742 0.534066,-0.0776 l 0.0729,-0.19108 0.171534,0.0931 -0.07008,0.18352 c 0.164586,0.0939 0.266422,0.1858 0.33444,0.26146 l -0.116951,0.0872 z m 3.059811,-0.0927 -0.09619,0.15046 -0.309172,-0.32413 c 0.117944,0.0265 0.231841,0.063 0.327875,0.13764 0.02489,0.0193 0.05122,0.0305 0.07748,0.036 z m -2.042444,-0.52445 c 0.04344,-0.11588 0.172297,-0.12848 0.325432,-0.11061 -0.135883,0.0583 -0.257338,0.14886 -0.352303,0.26543 0.01855,-0.0968 0.02687,-0.15482 0.02687,-0.15482 z"
           inkscape:connector-curvature="0"
           style="fill:#444444;fill-opacity:1" />
      </g>
      <g
         id="g4785"
         style="fill:#444444;fill-opacity:1" />
      <g
         id="g4787"
         style="fill:#444444;fill-opacity:1" />
      <g
         id="g4789"
         style="fill:#444444;fill-opacity:1" />
      <g
         id="g4791"
         style="fill:#444444;fill-opacity:1" />
      <g
         id="g4793"
         style="fill:#444444;fill-opacity:1" />
      <g
         id="g4795"
         style="fill:#444444;fill-opacity:1" />
      <g
         id="g4797"
         style="fill:#444444;fill-opacity:1" />
      <g
         id="g4799"
         style="fill:#444444;fill-opacity:1" />
      <g
         id="g4801"
         style="fill:#444444;fill-opacity:1" />
      <g
         id="g4803"
         style="fill:#444444;fill-opacity:1" />
      <g
         id="g4805"
         style="fill:#444444;fill-opacity:1" />
      <g
         id="g4807"
         style="fill:#444444;fill-opacity:1" />
      <g
         id="g4809"
         style="fill:#444444;fill-opacity:1" />
      <g
         id="g4811"
         style="fill:#444444;fill-opacity:1" />
      <g
         id="g4813"
         style="fill:#444444;fill-opacity:1" />
    </g>
  </g>
</svg>
