<?xml version="1.0" encoding="UTF-8" standalone="no"?>
<!-- Generated by IcoMoon.io -->

<svg
   xmlns:dc="http://purl.org/dc/elements/1.1/"
   xmlns:cc="http://creativecommons.org/ns#"
   xmlns:rdf="http://www.w3.org/1999/02/22-rdf-syntax-ns#"
   xmlns:svg="http://www.w3.org/2000/svg"
   xmlns="http://www.w3.org/2000/svg"
   xmlns:sodipodi="http://sodipodi.sourceforge.net/DTD/sodipodi-0.dtd"
   xmlns:inkscape="http://www.inkscape.org/namespaces/inkscape"
   version="1.1"
   width="32"
   height="32"
   viewBox="0 0 32 32"
   id="svg2"
   inkscape:version="0.91 r13725"
   sodipodi:docname="shooting.svg"
   inkscape:export-filename="C:\Users\Christoph\Documents\CrimeWatch\www\img\shooting.png"
   inkscape:export-xdpi="135"
   inkscape:export-ydpi="135">
  <metadata
     id="metadata10">
    <rdf:RDF>
      <cc:Work
         rdf:about="">
        <dc:format>image/svg+xml</dc:format>
        <dc:type
           rdf:resource="http://purl.org/dc/dcmitype/StillImage" />
        <dc:title></dc:title>
      </cc:Work>
    </rdf:RDF>
  </metadata>
  <defs
     id="defs8" />
  <sodipodi:namedview
     pagecolor="#ffffff"
     bordercolor="#666666"
     borderopacity="1"
     objecttolerance="10"
     gridtolerance="10"
     guidetolerance="10"
     inkscape:pageopacity="0"
     inkscape:pageshadow="2"
     inkscape:window-width="1280"
     inkscape:window-height="657"
     id="namedview6"
     showgrid="false"
     inkscape:zoom="20.85965"
     inkscape:cx="17.445403"
     inkscape:cy="20.203763"
     inkscape:window-x="-8"
     inkscape:window-y="-8"
     inkscape:window-maximized="1"
     inkscape:current-layer="layer1" />
  <g
     inkscape:groupmode="layer"
     id="layer2"
     inkscape:label="Layer 2">
    <circle
       style="fill:#ffffff;fill-opacity:1"
       id="path4276"
       cx="15.779661"
       cy="10.661016"
       r="7.9152541" />
  </g>
  <g
     inkscape:groupmode="layer"
     id="layer1"
     inkscape:label="Layer 1">
    <path
       d="M 16,0 C 10.477,0 6,4.477 6,10 6,20 16,32 16,32 16,32 26,20 26,10 26,4.477 21.523,0 16,0 Z m 0,16.125 c -3.383,0 -6.125,-2.742 -6.125,-6.125 0,-3.383 2.742,-6.125 6.125,-6.125 3.383,0 6.125,2.742 6.125,6.125 0,3.383 -2.742,6.125 -6.125,6.125 z"
       id="path4"
       style="fill:#b33d33;fill-opacity:1"
       inkscape:connector-curvature="0"
       sodipodi:nodetypes="sscsssssss" />
    <g
       id="g4941"
       transform="matrix(0.07888936,0,0,0.07888936,11.218599,4.9587977)"
       style="fill:#444444;fill-opacity:1">
      <g
         id="g4901"
         style="fill:#444444;fill-opacity:1">
        <path
           id="path4903"
           d="m 84.844,16.827 c 0.189,-5.882 5.111,-10.498 10.994,-10.309 5.883,0.19 10.498,5.112 10.31,10.994 -0.189,5.883 -5.111,10.499 -10.994,10.309 -5.883,-0.187 -10.499,-5.11 -10.31,-10.994 z m 29.498,39.492 -2.776,-20.406 c -0.729,-5.347 -5.66,-9.086 -11,-8.363 -4.351,0.592 -7.64,3.961 -8.322,8.076 -0.142,0.196 -0.277,0.39 -0.426,0.599 -0.949,1.332 -2.058,2.885 -3.242,4.55 -0.594,0.832 -1.207,1.692 -1.83,2.566 -0.621,0.885 -1.254,1.784 -1.887,2.683 -4.992,7.153 -9.984,14.307 -9.984,14.307 -0.859,1.24 -0.658,2.966 0.52,3.958 1.25,1.056 3.117,0.896 4.173,-0.354 0,0 5.625,-6.667 11.25,-13.334 0.879,-1.033 1.754,-2.063 2.608,-3.07 l 1.556,11.424 c 0.399,2.95 2.084,5.404 4.405,6.896 l -1.362,10.054 -0.062,0.445 c -0.059,0.436 -0.039,0.89 0.066,1.344 l 6.41,27.369 c 0.438,1.854 2.237,3.104 4.155,2.816 2.021,-0.306 3.412,-2.19 3.107,-4.211 l -4.021,-26.689 2.679,-11.406 c 2.838,-2.043 4.489,-5.545 3.983,-9.254 z m -48.074,5.522 0.228,-0.267 -0.078,-0.062 C 66.35,61.451 66.34,61.347 66.4,61.278 l 0.508,-0.604 c 0.061,-0.071 0.166,-0.08 0.235,-0.021 l 0.072,0.063 6.254,-7.413 c 0.033,-0.036 0.068,-0.074 0.101,-0.109 l -0.088,-0.182 c -0.041,-0.083 -0.007,-0.183 0.075,-0.223 l 0.15,-0.074 c 0.082,-0.039 0.182,-0.006 0.225,0.077 l 0.039,0.084 c 0.191,-0.117 0.4,-0.199 0.617,-0.245 l 0.58,-0.689 c 0.062,-0.072 0.166,-0.081 0.236,-0.021 l 2.01,1.697 c 0.07,0.058 0.08,0.163 0.021,0.233 l -0.01,0.012 c 0.191,0.167 0.301,0.337 0.271,0.551 l 0.422,0.214 -3.269,5.303 c -0.666,0.115 -1.215,-0.069 -1.498,-0.208 l -3.53,4.187 -0.826,-0.482 -0.557,0.659 c -0.06,0.069 -0.164,0.08 -0.234,0.021 l -1.57,-1.324 c -0.067,-0.061 -0.08,-0.165 -0.02,-0.234 l 0.287,-0.341 -0.633,-0.368 z m 8.685,-4.013 c 0.111,0.192 0.217,0.427 0.277,0.656 0.106,-0.22 0.231,-0.437 0.389,-0.65 L 75.146,57.6 74.953,57.828 Z m -1.322,1.567 c 0.269,0.113 0.729,0.242 1.269,0.114 0.024,-0.158 0.063,-0.319 0.112,-0.479 -0.016,-0.028 -0.02,-0.064 -0.008,-0.099 0.082,-0.229 -0.057,-0.59 -0.225,-0.896 l -1.148,1.36 z M 63.002,75.104 c -4.787,1.804 -7.205,7.146 -5.402,11.932 1.806,4.787 7.146,7.205 11.935,5.401 C 74.32,90.633 76.74,85.291 74.934,80.505 73.131,75.718 67.787,73.3 63.002,75.104 Z m -9.611,15.379 3.893,-9.307 c 0.047,-0.112 0.092,-0.234 0.127,-0.354 0.186,-0.599 0.217,-1.207 0.123,-1.787 0.127,-0.98 0.094,-2 -0.146,-3.021 -1.066,-4.567 -5.633,-7.406 -10.201,-6.337 l -18.604,4.348 c -0.426,0.101 -0.834,0.239 -1.229,0.397 -1.842,-0.167 -3.645,0.888 -4.342,2.699 L 18.432,88.985 5.858,88.012 c -1.385,-0.109 -2.664,0.828 -2.949,2.223 -0.311,1.51 0.664,2.984 2.174,3.293 l 15.326,3.135 c 1.447,0.297 2.951,-0.374 3.695,-1.691 l 1.045,4.183 -22.098,-2.1 C 1.596,96.92 0.26,97.94 0.033,99.404 c -0.234,1.521 0.809,2.944 2.328,3.18 l 27.047,4.171 c 0.355,0.053 0.74,0.056 1.113,-0.008 1.91,-0.319 3.197,-2.127 2.877,-4.036 l -0.039,-0.243 -1.968,-11.729 c 0.352,-0.037 0.703,-0.091 1.055,-0.173 l 14.807,-3.46 -0.863,2.791 -0.102,0.319 c -0.32,1.047 -0.068,2.231 0.76,3.062 l 10.76,10.797 c 0.921,0.918 2.412,1.021 3.445,0.183 1.104,-0.896 1.271,-2.517 0.377,-3.621 L 53.391,90.483 Z"
           inkscape:connector-curvature="0"
           style="fill:#444444;fill-opacity:1" />
      </g>
      <g
         id="g4905"
         style="fill:#444444;fill-opacity:1" />
      <g
         id="g4907"
         style="fill:#444444;fill-opacity:1" />
      <g
         id="g4909"
         style="fill:#444444;fill-opacity:1" />
      <g
         id="g4911"
         style="fill:#444444;fill-opacity:1" />
      <g
         id="g4913"
         style="fill:#444444;fill-opacity:1" />
      <g
         id="g4915"
         style="fill:#444444;fill-opacity:1" />
      <g
         id="g4917"
         style="fill:#444444;fill-opacity:1" />
      <g
         id="g4919"
         style="fill:#444444;fill-opacity:1" />
      <g
         id="g4921"
         style="fill:#444444;fill-opacity:1" />
      <g
         id="g4923"
         style="fill:#444444;fill-opacity:1" />
      <g
         id="g4925"
         style="fill:#444444;fill-opacity:1" />
      <g
         id="g4927"
         style="fill:#444444;fill-opacity:1" />
      <g
         id="g4929"
         style="fill:#444444;fill-opacity:1" />
      <g
         id="g4931"
         style="fill:#444444;fill-opacity:1" />
      <g
         id="g4933"
         style="fill:#444444;fill-opacity:1" />
    </g>
  </g>
</svg>
