<?xml version="1.0" encoding="UTF-8" standalone="no"?>
<!-- Generated by IcoMoon.io -->

<svg
   xmlns:dc="http://purl.org/dc/elements/1.1/"
   xmlns:cc="http://creativecommons.org/ns#"
   xmlns:rdf="http://www.w3.org/1999/02/22-rdf-syntax-ns#"
   xmlns:svg="http://www.w3.org/2000/svg"
   xmlns="http://www.w3.org/2000/svg"
   xmlns:sodipodi="http://sodipodi.sourceforge.net/DTD/sodipodi-0.dtd"
   xmlns:inkscape="http://www.inkscape.org/namespaces/inkscape"
   version="1.1"
   width="32"
   height="32"
   viewBox="0 0 32 32"
   id="svg2"
   inkscape:version="0.91 r13725"
   sodipodi:docname="theft.svg"
   inkscape:export-filename="C:\Users\Christoph\Documents\CrimeWatch\www\img\theft.png"
   inkscape:export-xdpi="135"
   inkscape:export-ydpi="135">
  <metadata
     id="metadata10">
    <rdf:RDF>
      <cc:Work
         rdf:about="">
        <dc:format>image/svg+xml</dc:format>
        <dc:type
           rdf:resource="http://purl.org/dc/dcmitype/StillImage" />
        <dc:title />
      </cc:Work>
    </rdf:RDF>
  </metadata>
  <defs
     id="defs8" />
  <sodipodi:namedview
     pagecolor="#ffffff"
     bordercolor="#666666"
     borderopacity="1"
     objecttolerance="10"
     gridtolerance="10"
     guidetolerance="10"
     inkscape:pageopacity="0"
     inkscape:pageshadow="2"
     inkscape:window-width="1280"
     inkscape:window-height="657"
     id="namedview6"
     showgrid="false"
     inkscape:zoom="7.375"
     inkscape:cx="-3.3965466"
     inkscape:cy="7.7158373"
     inkscape:window-x="-8"
     inkscape:window-y="-8"
     inkscape:window-maximized="1"
     inkscape:current-layer="layer1" />
  <g
     inkscape:groupmode="layer"
     id="layer2"
     inkscape:label="Layer 2">
    <circle
       style="fill:#ffffff;fill-opacity:1"
       id="path4276"
       cx="15.779661"
       cy="10.661016"
       r="7.9152541" />
  </g>
  <g
     inkscape:groupmode="layer"
     id="layer1"
     inkscape:label="Layer 1">
    <path
       d="M 16,0 C 10.477,0 6,4.477 6,10 6,20 16,32 16,32 16,32 26,20 26,10 26,4.477 21.523,0 16,0 Z m 0,16.125 c -3.383,0 -6.125,-2.742 -6.125,-6.125 0,-3.383 2.742,-6.125 6.125,-6.125 3.383,0 6.125,2.742 6.125,6.125 0,3.383 -2.742,6.125 -6.125,6.125 z"
       id="path4"
       style="fill:#b33d33;fill-opacity:1"
       inkscape:connector-curvature="0"
       sodipodi:nodetypes="sscsssssss" />
    <g
       id="g4249"
       transform="matrix(0.07160049,0,0,0.07160049,11.848306,5.6661952)"
       style="fill:#444444;fill-opacity:1">
      <g
         id="g4197"
         style="fill:#444444;fill-opacity:1">
        <g
           id="g4199"
           style="fill:#444444;fill-opacity:1">
          <circle
             id="circle4201"
             r="12.096"
             cy="12.528"
             cx="95.114998"
             style="fill:#444444;fill-opacity:1" />
          <path
             id="path4203"
             d="m 94.735,26.555 c -2.023,-1.916 -4.765,-3.081 -7.77,-3.04 -6.125,0.083 -11.021,5.117 -10.938,11.241 l 1.051,13.767 C 78.066,40.854 80.929,28.24 94.735,26.555 Z"
             inkscape:connector-curvature="0"
             style="fill:#444444;fill-opacity:1" />
          <path
             id="path4205"
             d="m 98.509,58.45 c 0.009,-0.208 0.021,-0.414 0.019,-0.625 L 98.208,34.452 C 98.066,30.409 95.161,27.354 95.161,27.354 77.821,29.208 76.77,50.056 76.726,53.938 l -2.445,0 c 0.409,-0.305 0.76,-0.698 0.996,-1.189 0.785,-1.634 0.097,-3.595 -1.537,-4.379 L 55.106,39.414 46.078,28.139 C 45.98,28.018 45.872,27.894 45.761,27.78 45.217,27.22 44.57,26.832 43.881,26.582 42.952,25.9 41.905,25.349 40.745,24.981 38.891,24.394 37,24.339 35.226,24.718 c -0.722,-0.11 -1.479,-0.069 -2.224,0.16 l -13.878,4.274 -0.425,0.131 c -0.895,0.278 -1.687,0.892 -2.169,1.781 L 11.584,40.168 9.14,44.754 7.928,47.085 7.32,48.292 6.996,48.968 6.792,49.415 c -0.161,0.381 -0.283,0.787 -0.359,1.186 -0.252,1.793 0.999,3.45 2.793,3.701 1.793,0.251 3.45,-1 3.701,-2.793 0.005,0.199 -0.036,0.406 -0.115,0.588 l -0.03,0.066 0.017,-0.027 0.033,-0.056 0.067,-0.11 0.282,-0.461 0.658,-1.04 1.384,-2.126 2.845,-4.271 4.686,-6.917 2.969,-0.604 -5.461,17.246 c -0.486,1.534 -0.602,3.093 -0.417,4.591 -0.234,0.575 -0.379,1.198 -0.401,1.855 L 18.976,73.809 5.003,97.625 c -0.916,1.574 -0.502,3.63 1.013,4.7 1.603,1.137 3.822,0.756 4.957,-0.848 l 16.771,-23.69 c 0.365,-0.52 0.622,-1.148 0.702,-1.822 l 0.05,-0.406 0.931,-7.729 c 0.172,0.021 0.343,0.037 0.514,0.047 l 11.777,13.713 -4.961,22.283 c -0.392,1.787 0.643,3.619 2.422,4.169 1.876,0.579 3.866,-0.472 4.446,-2.348 L 51.09,81.519 c 0.366,-1.215 0.188,-2.604 -0.618,-3.71 L 50.256,77.511 39.666,62.962 c 0.518,-0.8 0.943,-1.675 1.244,-2.625 l 5.537,-17.489 2.735,2.814 0.29,0.3 c 0.338,0.345 0.756,0.624 1.238,0.804 l 19.217,7.172 -1.085,0 0,19.229 13.483,0.642 -0.19,34.26 c -0.004,1.863 1.414,3.471 3.305,3.646 2.002,0.186 3.776,-1.286 3.962,-3.289 l 3.801,-40.985 c 0.256,-0.156 0.502,-0.326 0.744,-0.502 L 83.968,49.978 c -0.129,-0.219 -0.231,-0.447 -0.323,-0.68 0.398,0.15 0.805,0.281 1.208,0.42 l 10.706,18.194 c 0.874,1.477 2.75,2.082 4.332,1.335 1.679,-0.792 2.396,-2.795 1.604,-4.475 L 98.509,58.45 Z M 76.725,53.956 c -0.004,0.367 0.001,0.587 0.001,0.609 l -0.426,0.014 0.425,-0.623 z m 7.342,1.902 0,16.672 -13.946,-0.642 0,-16.67 13.946,0.64 z"
             inkscape:connector-curvature="0"
             style="fill:#444444;fill-opacity:1" />
          <polygon
             id="polygon4207"
             points="71.277,61.706 82.911,62.347 82.911,57.015 71.277,56.374 "
             style="fill:#444444;fill-opacity:1" />
          <polygon
             id="polygon4209"
             points="80.8,64.804 77.838,64.633 77.838,62.991 76.257,62.946 76.172,64.589 73.295,64.418 73.295,62.904 71.277,62.861 71.277,70.733 82.911,71.374 82.911,63.332 80.8,63.247 "
             style="fill:#444444;fill-opacity:1" />
          <path
             id="path4211"
             d="m 34.867,6.136 0.728,-2.445 c 0.82,-2.734 3.7,-4.292 6.431,-3.473 l 10.9,3.252 c 2.74,0.821 4.293,3.699 3.476,6.437 l -0.588,1.978 c 1.369,1.486 2.442,3.264 1.9,4.888 -0.48,1.441 -2.063,0.822 -3.818,-0.471 -0.044,0.173 -0.076,0.347 -0.128,0.521 -1.675,5.603 -7.572,8.788 -13.174,7.113 C 34.991,22.264 31.813,16.369 33.481,10.765 33.829,9.601 34.366,8.549 35.04,7.617 34.713,7.393 34.618,6.964 34.867,6.136 Z"
             inkscape:connector-curvature="0"
             style="fill:#444444;fill-opacity:1" />
        </g>
      </g>
      <g
         id="g4213"
         style="fill:#444444;fill-opacity:1" />
      <g
         id="g4215"
         style="fill:#444444;fill-opacity:1" />
      <g
         id="g4217"
         style="fill:#444444;fill-opacity:1" />
      <g
         id="g4219"
         style="fill:#444444;fill-opacity:1" />
      <g
         id="g4221"
         style="fill:#444444;fill-opacity:1" />
      <g
         id="g4223"
         style="fill:#444444;fill-opacity:1" />
      <g
         id="g4225"
         style="fill:#444444;fill-opacity:1" />
      <g
         id="g4227"
         style="fill:#444444;fill-opacity:1" />
      <g
         id="g4229"
         style="fill:#444444;fill-opacity:1" />
      <g
         id="g4231"
         style="fill:#444444;fill-opacity:1" />
      <g
         id="g4233"
         style="fill:#444444;fill-opacity:1" />
      <g
         id="g4235"
         style="fill:#444444;fill-opacity:1" />
      <g
         id="g4237"
         style="fill:#444444;fill-opacity:1" />
      <g
         id="g4239"
         style="fill:#444444;fill-opacity:1" />
      <g
         id="g4241"
         style="fill:#444444;fill-opacity:1" />
    </g>
  </g>
</svg>
