<?xml version="1.0" encoding="UTF-8" standalone="no"?>
<!-- Created with Inkscape (http://www.inkscape.org/) -->

<svg
   xmlns:dc="http://purl.org/dc/elements/1.1/"
   xmlns:cc="http://creativecommons.org/ns#"
   xmlns:rdf="http://www.w3.org/1999/02/22-rdf-syntax-ns#"
   xmlns:svg="http://www.w3.org/2000/svg"
   xmlns="http://www.w3.org/2000/svg"
   xmlns:sodipodi="http://sodipodi.sourceforge.net/DTD/sodipodi-0.dtd"
   xmlns:inkscape="http://www.inkscape.org/namespaces/inkscape"
   width="512"
   height="512"
   viewBox="0 0 512.00001 512.00001"
   id="svg2"
   version="1.1"
   inkscape:version="0.91 r13725"
   sodipodi:docname="logo.svg">
  <defs
     id="defs4" />
  <sodipodi:namedview
     id="base"
     pagecolor="#ffffff"
     bordercolor="#666666"
     borderopacity="1.0"
     inkscape:pageopacity="0.0"
     inkscape:pageshadow="2"
     inkscape:zoom="0.7"
     inkscape:cx="590.54372"
     inkscape:cy="243.65383"
     inkscape:document-units="px"
     inkscape:current-layer="layer2"
     showgrid="false"
     units="px"
     inkscape:window-width="1280"
     inkscape:window-height="657"
     inkscape:window-x="-8"
     inkscape:window-y="-8"
     inkscape:window-maximized="1" />
  <metadata
     id="metadata7">
    <rdf:RDF>
      <cc:Work
         rdf:about="">
        <dc:format>image/svg+xml</dc:format>
        <dc:type
           rdf:resource="http://purl.org/dc/dcmitype/StillImage" />
        <dc:title></dc:title>
      </cc:Work>
    </rdf:RDF>
  </metadata>
  <g
     inkscape:groupmode="layer"
     id="layer2"
     inkscape:label="Ebene 2">
    <rect
       style="fill:#b33d33;fill-opacity:1"
       id="rect4179"
       width="624.28571"
       height="597.14288"
       x="-43.57143"
       y="-52.285736" />
    <ellipse
       style="fill:#ffffff;fill-opacity:1"
       id="path4201"
       cx="255.71429"
       cy="248.14284"
       rx="160"
       ry="137.85715" />
  </g>
  <g
     inkscape:label="Ebene 1"
     inkscape:groupmode="layer"
     id="layer1"
     transform="translate(0,-540.36216)">
    <path
       inkscape:connector-curvature="0"
       style="fill:#444444"
       d="m 134.53424,796.39531 q 0,50.69226 35.87639,86.56872 35.87647,35.87642 86.56872,35.87642 50.69232,0 86.56872,-35.87642 35.87646,-35.87646 35.87646,-86.56872 0,-50.69228 -35.87646,-86.56871 -35.8764,-35.87646 -86.56872,-35.87646 -50.69225,0 -86.56872,35.87646 -35.87639,35.87643 -35.87639,86.56871 z m 286.03186,0 q 0,78.44653 -62.18173,128.17965 l -20.08101,116.71074 -162.62756,0 -20.081,-116.71074 Q 93.413051,876.73971 93.413051,796.39531 q 0,-80.34443 62.181749,-128.17966 l 20.081,-116.71064 162.62756,0 20.08101,116.71064 q 62.18173,49.75356 62.18173,128.17966 z"
       id="path4" />
    <g
       id="g3361"
       transform="matrix(0.89432354,0,0,0.89432354,-152.05176,249.13257)"
       style="fill:#b33d33;fill-opacity:1">
      <path
         style="fill:#b33d33;fill-opacity:1"
         d="m 432.71426,715.14177 c -22.92721,-1.43851 -42.48613,-5.44797 -53.88751,-11.04662 l -6.3875,-3.13659 0.61904,-8.11965 c 0.34048,-4.4658 1.53726,-20.49464 2.65951,-35.61964 1.68332,-22.68659 2.35539,-27.93758 3.83967,-30 2.6855,-3.73151 14.86321,-12.6555 21.40679,-15.68718 3.1625,-1.46521 5.75,-3.18242 5.75,-3.81601 0,-0.6336 -1.125,-3.92064 -2.5,-7.30453 -1.375,-3.3839 -2.5,-6.328 -2.5,-6.54245 0,-0.21445 2.1375,-0.96777 4.75,-1.67404 2.6125,-0.70627 5.02288,-1.42637 5.3564,-1.60023 0.749,-0.39043 -2.51308,-10.23775 -3.72645,-11.2491 -0.48397,-0.4034 -4.25495,-1.77126 -8.37995,-3.0397 -21.42103,-6.58693 -32.93039,-17.5116 -29.92312,-28.40301 1.98924,-7.20443 10.4832,-11.31029 30.30237,-14.64774 l 9.87925,-1.66362 4.23153,-13.55643 c 2.32735,-7.45604 4.55103,-14.07338 4.94152,-14.70521 1.31206,-2.12296 10.13935,-5.94427 16.63145,-7.19971 8.29454,-1.60399 31.57946,-1.60399 39.874,0 6.4921,1.25544 15.31938,5.07675 16.63145,7.19971 0.39049,0.63183 2.61417,7.24917 4.94152,14.70521 l 4.23153,13.55643 9.87925,1.66362 c 13.61396,2.29252 20.29091,4.39298 25.14726,7.9109 4.94926,3.58523 6.76096,8.55344 5.19165,14.23703 -2.09021,7.57012 -14.29649,16.08643 -29.95966,20.90283 -4.125,1.26843 -7.89598,2.63629 -8.37995,3.03969 -1.21337,1.01135 -4.47545,10.85867 -3.72645,11.2491 0.33352,0.17386 2.7439,0.89396 5.3564,1.60023 2.6125,0.70627 4.75,1.45959 4.75,1.67404 0,0.21445 -1.125,3.15855 -2.5,6.54245 -1.375,3.38389 -2.5,6.68161 -2.5,7.32825 0,0.64665 1.9125,2.00752 4.25,3.02415 5.94056,2.5837 18.21995,11.0876 21.64813,14.99208 3.1644,3.60405 2.5532,0.26191 8.03984,43.96324 2.95232,23.51535 3.39612,27.74435 3.17272,30.23315 -0.17934,1.99801 -9.74302,6.2895 -19.52173,8.75995 -14.24529,3.59887 -26.69668,5.38809 -45.08896,6.47912 -18.81242,1.11595 -26.05017,1.10786 -44.5,-0.0497 z m 13.5,-142.8259 c 3.99442,-1.84837 3.99651,-1.85237 1.5,-2.87 -22.32668,-9.10085 -30.34881,-12.21113 -30.66914,-11.89079 -0.6885,0.6885 1.74188,6.07078 4.19147,9.28235 5.22621,6.85191 16.61252,9.34931 24.97767,5.47844 z m 39.67478,-1.65183 c 3.87855,-2.72595 9.85785,-11.74547 8.6122,-12.99112 -0.4199,-0.41991 -7.77235,2.39167 -30.78698,11.77295 -2.49914,1.0187 -2.49862,1.01971 1.5,2.92459 6.09993,2.90592 15.17834,2.15662 20.67478,-1.70642 z"
         id="path3377"
         inkscape:connector-curvature="0" />
      <path
         style="fill:#b33d33;fill-opacity:1"
         d="m 433.71426,715.12262 c -6.325,-0.44607 -15.1054,-1.28431 -19.512,-1.86276 -19.63548,-2.57753 -41.488,-9.97934 -41.488,-14.05267 0,-1.02705 0.65514,-9.88199 1.45587,-19.67764 0.80073,-9.79565 1.97813,-25.01028 2.61644,-33.81028 0.93123,-12.83827 1.53607,-16.52914 3.06078,-18.67775 2.67363,-3.76766 13.14357,-11.43284 21.06517,-15.42209 l 6.69923,-3.37368 -2.94875,-7.15078 c -1.6218,-3.93293 -2.94874,-7.2554 -2.94874,-7.38328 0,-0.12787 2.1375,-0.81036 4.75,-1.51663 2.6125,-0.70627 5.05746,-1.44775 5.43325,-1.64772 0.74354,-0.39568 -1.9216,-9.12873 -3.34202,-10.95108 -0.48143,-0.61765 -3.68016,-1.89184 -7.10828,-2.83153 -10.71375,-2.93675 -21.82932,-8.872 -27.03174,-14.43381 -4.38766,-4.69076 -4.69973,-5.37898 -4.67897,-10.31881 0.0427,-10.16782 7.96881,-15.05193 30.37705,-18.71854 l 10.02333,-1.64009 3.26419,-10.46711 c 1.79531,-5.7569 3.83772,-12.26017 4.53869,-14.4517 2.49918,-7.81345 15.2475,-11.79361 37.7745,-11.79361 22.527,0 35.27532,3.98016 37.7745,11.79361 0.70097,2.19153 2.74338,8.6948 4.53869,14.4517 l 3.26419,10.46711 10.02333,1.64009 c 20.29464,3.32076 29.84301,8.4678 30.47162,16.4257 0.46557,5.89402 -0.24432,7.76955 -4.77354,12.61165 -5.20242,5.56181 -16.31799,11.49706 -27.03174,14.43381 -3.42812,0.93969 -6.62684,2.21388 -7.10828,2.83153 -1.42042,1.82235 -4.08556,10.5554 -3.34202,10.95108 0.37579,0.19997 2.82075,0.94145 5.43325,1.64772 2.6125,0.70627 4.75,1.38876 4.75,1.51663 0,0.12788 -1.32693,3.45035 -2.94874,7.38328 l -2.94875,7.15078 6.69923,3.37368 c 7.92938,3.99317 18.39733,11.65912 21.05907,15.42209 1.5016,2.12286 2.75076,9.51614 6.02809,35.67775 2.2737,18.15 4.12884,34.26572 4.12255,35.81272 -0.0101,2.47962 -0.7516,3.14625 -6.26145,5.62919 -19.80644,8.92552 -63.64824,13.64855 -101.75,10.96144 z m 12.04506,-142.53806 c 2.24704,-0.89908 3.71865,-1.98121 3.27023,-2.40472 -1.44619,-1.36589 -31.45779,-13.15141 -32.03075,-12.57844 -0.85829,0.85829 1.78968,6.55263 4.60044,9.89302 5.24741,6.2362 15.76025,8.45109 24.16008,5.09014 z m 36.73706,0.0817 c 2.04483,-0.85417 4.90189,-2.68712 6.34902,-4.07321 2.81768,-2.69884 6.55811,-10.01782 5.60619,-10.96974 -0.47959,-0.47959 -29.16149,10.56289 -32.20346,12.39827 -1.7698,1.06782 6.89622,4.1449 11.74825,4.17151 2.63016,0.0144 6.45516,-0.67265 8.5,-1.52683 z"
         id="path3375"
         inkscape:connector-curvature="0" />
      <path
         style="fill:#b33d33;fill-opacity:1"
         d="m 418.47572,713.63851 c -19.10853,-2.19684 -41.15968,-8.57936 -44.80142,-12.96739 -0.76341,-0.91985 -0.49701,-8.24351 0.93192,-25.61995 1.10049,-13.38254 2.30509,-29.18896 2.67688,-35.12537 l 0.67599,-10.79346 4.51141,-4.51142 c 5.85574,-5.85574 14.75937,-11.54412 25.00227,-15.97354 0.14217,-0.0615 -1.09533,-3.39485 -2.75,-7.40749 -1.65468,-4.01263 -3.00851,-7.42653 -3.00851,-7.58644 0,-0.15991 2.475,-0.84463 5.5,-1.52159 3.025,-0.67697 5.48531,-1.49674 5.46735,-1.82172 -0.018,-0.32498 -0.86059,-2.98821 -1.87254,-5.91829 l -1.83989,-5.32742 -10.37746,-3.47822 c -11.1622,-3.74125 -16.91897,-6.70846 -22.46828,-11.58083 -9.59138,-8.42134 -8.41876,-19.16944 2.71085,-24.84734 4.30067,-2.19404 17.40463,-5.46174 25.92668,-6.46526 l 5.5467,-0.65316 3.76969,-12.66017 c 5.04079,-16.92906 4.96353,-16.776 9.68428,-19.18435 13.12414,-6.69544 50.7811,-6.69544 63.90524,0 4.72075,2.40835 4.64349,2.25529 9.68428,19.18435 l 3.76969,12.66017 5.5467,0.65316 c 8.52205,1.00352 21.62601,4.27122 25.92668,6.46526 11.12961,5.6779 12.30223,16.426 2.71085,24.84734 -5.54931,4.87237 -11.30608,7.83958 -22.46828,11.58083 l -10.37746,3.47822 -1.83989,5.32742 c -1.01194,2.93008 -1.85459,5.59331 -1.87254,5.91829 -0.018,0.32498 2.44235,1.14475 5.46735,1.82172 3.025,0.67696 5.5,1.36168 5.5,1.52159 0,0.15991 -1.35383,3.57381 -3.0085,7.58644 -1.65468,4.01264 -2.89218,7.33703 -2.75,7.38754 3.94892,1.40292 16.92049,8.9472 20.62049,11.9929 8.96141,7.37669 8.36211,5.361 13.18339,44.34087 4.2999,34.76457 4.3325,35.26172 2.40678,36.70237 -6.09176,4.55731 -30.22432,10.48313 -50.87584,12.49272 -14.82805,1.44291 -56.40466,1.13892 -70.81486,-0.51778 z m 27.70461,-141.10445 c 1.94366,-0.92687 3.52339,-1.93937 3.5105,-2.25 -0.0348,-0.83892 -31.97411,-13.40059 -32.5664,-12.8083 -2.11606,2.11607 4.6534,11.66992 10.43186,14.72264 4.68393,2.47448 13.79455,2.63868 18.62404,0.33566 z m 37.47704,-0.28577 c 5.90886,-3.01447 12.81809,-12.60116 10.64672,-14.77253 -0.59404,-0.59404 -32.53174,11.9707 -32.5664,12.81208 -0.0129,0.31272 1.43907,1.29644 3.22657,2.18605 4.65582,2.31713 13.92831,2.20522 18.69311,-0.2256 z"
         id="path3373"
         inkscape:connector-curvature="0" />
      <path
         style="fill:#b33d33;fill-opacity:1"
         d="m 419.98253,713.66205 c -19.6143,-2.14022 -42.62325,-8.55079 -46.21228,-12.87531 -0.62261,-0.75021 -0.64648,-5.11492 -0.0663,-12.11995 0.49872,-6.02114 1.70284,-21.89989 2.67581,-35.28613 l 1.76904,-24.3386 6.09675,-5.70321 c 3.49919,-3.27332 9.69096,-7.55701 14.53272,-10.05426 4.63978,-2.39308 8.58274,-4.47104 8.76214,-4.6177 0.17941,-0.14666 -1.02446,-3.4813 -2.67525,-7.41031 l -3.00145,-7.14365 2.67526,-1.01959 c 1.47139,-0.56078 3.91276,-1.2681 5.42526,-1.57183 3.26814,-0.65629 3.24577,-0.47121 0.87183,-7.21226 l -1.87817,-5.33324 -8.37183,-2.71354 c -15.11386,-4.89882 -26.06707,-11.65249 -29.42291,-18.14198 -2.33853,-4.52221 -1.85075,-10.27023 1.17687,-13.86834 4.62114,-5.49192 13.2152,-8.66518 29.94468,-11.05675 l 8.07048,-1.15371 4.19395,-13.61212 c 2.47777,-8.04196 5.09079,-14.56675 6.38561,-15.94502 1.2054,-1.2831 5.36141,-3.33019 9.23557,-4.54909 6.21234,-1.95456 9.22796,-2.21619 25.54392,-2.21619 16.31596,0 19.33158,0.26163 25.54392,2.21619 3.87416,1.2189 8.03017,3.26599 9.23557,4.54909 1.29482,1.37827 3.90784,7.90306 6.38561,15.94502 l 4.19395,13.61212 8.07048,1.15371 c 16.72948,2.39157 25.32354,5.56483 29.94468,11.05675 3.02762,3.59811 3.5154,9.34613 1.17687,13.86834 -3.35584,6.48949 -14.30905,13.24316 -29.42291,18.14198 l -8.37183,2.71354 -1.87817,5.33324 c -2.37394,6.74105 -2.39632,6.55597 0.87183,7.21226 1.5125,0.30373 3.95387,1.01105 5.42526,1.57183 l 2.67525,1.01959 -3.00144,7.14365 c -1.65079,3.92901 -2.85466,7.26365 -2.67526,7.41031 0.17941,0.14666 4.13136,2.22929 8.78211,4.62808 4.86995,2.51184 11.00208,6.75464 14.45989,10.00474 l 6.00396,5.64331 4.24441,33.38813 c 2.33443,18.36346 4.26498,34.559 4.29011,35.99008 0.0396,2.25438 -0.86204,3.02037 -6.74963,5.73414 -8.89746,4.1011 -25.15608,7.70256 -43.42622,9.61938 -17.93992,1.88218 -54.20336,1.87573 -71.51017,-0.0127 z m 26.32958,-140.91922 c 1.87118,-0.78183 3.39651,-1.78197 3.38962,-2.22253 -0.007,-0.44057 -7.43189,-3.77478 -16.5,-7.40937 -17.30535,-6.93616 -17.83049,-6.95735 -15.10671,-0.60954 4.42082,10.30279 17.07661,14.89623 28.21709,10.24144 z m 33.98809,1.00676 c 7.10778,-2.11078 14.41406,-10.19752 14.41406,-15.95376 0,-0.84273 -5.74319,1.00885 -16.48627,5.3151 -9.06745,3.63459 -16.35024,7.05834 -16.18398,7.60834 0.31966,1.05746 9.07716,4.38195 11.73875,4.45623 0.86267,0.0241 3.79552,-0.61759 6.51744,-1.42591 z"
         id="path3371"
         inkscape:connector-curvature="0" />
      <path
         style="fill:#b33d33;fill-opacity:1"
         d="m 421.21426,713.71946 c -19.59779,-2.25552 -36.89487,-6.59507 -44.7204,-11.21961 -3.89272,-2.30042 -3.86448,1.15764 -0.35749,-43.77765 l 2.34113,-29.99708 6.1538,-5.65992 c 3.38459,-3.11295 9.85036,-7.56606 14.36838,-9.89579 4.51802,-2.32973 8.39682,-4.39132 8.61956,-4.58132 0.22275,-0.19 -0.79105,-3.16321 -2.25287,-6.60714 -1.46182,-3.44392 -2.65656,-6.7793 -2.65498,-7.41194 0.002,-0.63264 2.25287,-1.69003 5.00287,-2.34974 2.75,-0.65971 4.96512,-1.7171 4.9225,-2.34974 -0.0426,-0.63264 -0.85463,-3.35739 -1.80445,-6.05498 l -1.72694,-4.90473 -9.44556,-3.18013 C 378.70257,568.6738 369.71426,561.15 369.71426,550.66331 c 0,-3.06781 0.71865,-4.43735 3.93294,-7.49503 5.42819,-5.16371 13.49637,-7.6916 33.62838,-10.53628 2.99333,-0.42296 3.15758,-0.74246 7.3943,-14.3839 4.47809,-14.41857 5.99249,-16.91704 11.54438,-19.04601 13.65881,-5.23773 45.34119,-5.23773 59,0 5.55189,2.12897 7.06629,4.62744 11.54438,19.04601 4.23672,13.64144 4.40097,13.96094 7.3943,14.3839 20.13201,2.84468 28.20019,5.37257 33.62838,10.53628 3.21429,3.05768 3.93294,4.42722 3.93294,7.49503 0,10.48669 -8.98831,18.01049 -29.94555,25.06638 l -9.44556,3.18013 -1.72694,4.90473 c -0.94982,2.69759 -1.76182,5.42234 -1.80445,6.05498 -0.0426,0.63264 2.1725,1.69003 4.9225,2.34974 2.75,0.65971 5.00129,1.7171 5.00287,2.34974 0.002,0.63264 -1.19316,3.96802 -2.65498,7.41194 -1.46182,3.44393 -2.47562,6.41714 -2.25287,6.60714 0.22274,0.19 4.10154,2.25159 8.61956,4.58132 4.51802,2.32973 10.97894,6.78152 14.35759,9.89287 l 6.143,5.65699 2.38057,18.5 c 1.30932,10.175 3.32501,26.13669 4.47932,35.47042 l 2.09875,16.97042 -2.1279,1.72307 c -5.77907,4.6796 -27.00855,9.98017 -49.26747,12.30109 -17.65033,1.84038 -53.43557,1.85856 -69.27844,0.0352 z M 446.87064,572.6384 c 1.56399,-0.80877 2.84362,-1.82498 2.84362,-2.25825 0,-0.43326 -7.425,-3.75337 -16.5,-7.37802 -15.21523,-6.07712 -16.5,-6.42941 -16.5,-4.52442 0,5.53435 7.39489,13.44518 14.76404,15.79414 3.52661,1.12412 11.74666,0.25181 15.39234,-1.63345 z m 38.48608,-0.94975 c 4.48102,-2.62605 9.35754,-9.5107 9.35754,-13.21094 0,-1.90499 -1.28477,-1.5527 -16.5,4.52442 -9.075,3.62465 -16.5,6.94048 -16.5,7.36852 0,0.42804 1.0125,1.32223 2.25,1.98709 6.45801,3.46962 14.77412,3.20952 21.39246,-0.66909 z"
         id="path3369"
         inkscape:connector-curvature="0" />
      <path
         style="fill:#b33d33;fill-opacity:1"
         d="m 426.21426,714.18023 c -21.94716,-2.17554 -40.47032,-6.52953 -49.20127,-11.56508 -4.16277,-2.40087 -4.19663,-2.46649 -3.69447,-7.15948 0.27875,-2.60502 1.5676,-18.6864 2.86412,-35.7364 l 2.35731,-31 5.98047,-5.52629 c 3.28925,-3.03946 9.84814,-7.53946 14.5753,-10 4.72716,-2.46054 8.60017,-4.82477 8.60669,-5.25384 0.007,-0.42908 -1.11315,-3.45302 -2.48815,-6.71987 -1.375,-3.26685 -2.5,-6.35841 -2.5,-6.87013 0,-0.51171 2.25,-1.47016 5,-2.12987 2.75,-0.65971 4.99963,-1.7171 4.99919,-2.34974 -4.5e-4,-0.63264 -0.83805,-3.35475 -1.86133,-6.04913 l -1.8605,-4.89886 -10.38868,-3.668 c -11.9434,-4.21693 -13.64544,-5.04226 -20.17565,-9.7834 -9.42615,-6.84367 -11.33203,-16.72652 -4.39021,-22.7652 5.14376,-4.47456 21.05629,-9.3938 30.67718,-9.48362 1.925,-0.018 4.0718,-0.39559 4.77067,-0.83916 0.69887,-0.44356 3.12796,-6.84917 5.39797,-14.23468 2.27,-7.38552 4.5931,-14.0236 5.16242,-14.7513 8.35209,-10.6754 62.98579,-10.6754 71.33788,0 0.56932,0.7277 2.89242,7.36578 5.16243,14.7513 2.27,7.38551 4.69909,13.79112 5.39796,14.23468 0.69887,0.44357 2.84567,0.82119 4.77067,0.83916 4.51509,0.0421 16.14388,2.5018 22.35602,4.7286 17.8864,6.41155 16.27249,21.95214 -3.35602,32.31567 -1.375,0.72598 -7.17491,2.97056 -12.88868,4.98795 l -10.38868,3.668 -1.8605,4.89886 c -1.02328,2.69438 -1.86088,5.41649 -1.86133,6.04913 -4.4e-4,0.63264 2.24919,1.69003 4.99919,2.34974 2.75,0.65971 5,1.61816 5,2.12987 0,0.51172 -1.125,3.60328 -2.5,6.87013 -1.375,3.26685 -2.49467,6.29079 -2.48815,6.71987 0.007,0.42907 3.87953,2.7933 8.60669,5.25384 4.72716,2.46054 11.27734,6.96054 14.55595,10 l 5.96112,5.52629 4.43205,35 c 2.43762,19.25 4.21265,35.58486 3.94451,36.29968 -1.41298,3.76679 -21.91267,9.89621 -42.51217,12.71118 -14.48416,1.97929 -58.31693,2.85601 -72.5,1.4501 z M 446.6605,572.74707 c 1.67957,-0.86854 3.05376,-1.95045 3.05376,-2.40425 0,-0.4538 -7.3125,-3.75641 -16.25,-7.33913 -14.7094,-5.89647 -16.28074,-6.33388 -16.57421,-4.61371 -0.82756,4.85077 7.09566,13.48063 14.58825,15.88931 3.68976,1.18616 11.43749,0.40425 15.1822,-1.53222 z m 38.62963,-1.0194 c 4.71066,-2.76062 9.79937,-10.10311 9.24834,-13.34439 -0.29405,-1.72963 -1.80947,-1.30974 -16.28995,4.51355 -8.78116,3.53133 -16.17616,6.63101 -16.43333,6.88818 -0.82357,0.82356 1.53679,2.54232 5.52386,4.02236 5.22455,1.93939 12.53901,1.09199 17.95108,-2.0797 z"
         id="path3367"
         inkscape:connector-curvature="0" />
      <path
         style="fill:#b33d33;fill-opacity:1"
         d="m 432.21426,714.60543 c -16.91303,-1.73087 -30.4192,-3.83895 -38.5,-6.00918 -9.06345,-2.43413 -18.87125,-6.55063 -20.01447,-8.4004 -0.294,-0.47569 0.72597,-16.74346 2.26659,-36.15059 l 2.80112,-35.28571 3.22338,-3.34562 c 3.95872,-4.10884 14.94199,-11.51913 21.13093,-14.25679 2.52585,-1.1173 4.59245,-2.47396 4.59245,-3.0148 0,-0.54083 -1.125,-3.65622 -2.5,-6.92307 -1.375,-3.26685 -2.5,-6.33169 -2.5,-6.81074 0,-0.47905 2.50793,-1.43225 5.57318,-2.11822 4.57569,-1.024 5.44848,-1.54468 4.8764,-2.90913 -0.38323,-0.91405 -1.42513,-3.74132 -2.31532,-6.28281 -1.6051,-4.58257 -1.68081,-4.63919 -9.12639,-6.82435 -24.48925,-7.18721 -36.73155,-19.79469 -29.97788,-30.87209 3.29765,-5.40882 16.68776,-10.48292 31.25155,-11.8426 3.72985,-0.34822 7.055,-1.07558 7.38922,-1.61636 0.33422,-0.54078 2.51146,-7.11234 4.83831,-14.60346 4.90065,-15.77735 5.71075,-16.6805 17.72213,-19.75791 10.27682,-2.63301 35.26078,-2.63301 45.5376,0 12.01138,3.07741 12.82148,3.98056 17.72214,19.75791 2.32684,7.49112 4.50408,14.06268 4.8383,14.60346 0.33422,0.54078 3.65937,1.26814 7.38922,1.61636 14.56379,1.35968 27.9539,6.43378 31.25155,11.8426 6.75367,11.0774 -5.48863,23.68488 -29.97788,30.87209 -7.44558,2.18516 -7.52129,2.24178 -9.12639,6.82435 -0.89019,2.54149 -1.93208,5.36876 -2.31532,6.28281 -0.57208,1.36445 0.30071,1.88513 4.8764,2.90913 3.06525,0.68597 5.57318,1.63917 5.57318,2.11822 0,0.47905 -1.125,3.54389 -2.5,6.81074 -1.375,3.26685 -2.5,6.38224 -2.5,6.92307 0,0.54084 2.0666,1.8975 4.59245,3.0148 6.20219,2.74352 17.18848,10.15977 21.08992,14.23665 3.50658,3.66427 3.53184,3.80471 9.86352,54.82548 2.28901,18.44486 2.32618,19.57301 0.68703,20.84931 -5.24928,4.08725 -23.3565,9.10243 -42.23292,11.69732 -10.98588,1.51019 -56.28651,2.78244 -65.5,1.83953 z m 13.25,-141.35923 c 2.3375,-1.06103 4.25,-2.34375 4.25,-2.85049 0,-0.96501 -32.87239,-14.63738 -33.55393,-13.95584 -1.25483,1.25482 2.28017,8.55828 5.88917,12.16727 6.55986,6.55986 15.34751,8.30092 23.41476,4.63906 z m 35.63398,0.74323 c 5.26054,-1.57181 12.1353,-8.3696 13.51395,-13.36265 0.57632,-2.08728 0.87152,-3.97139 0.656,-4.18691 -0.68154,-0.68154 -33.55393,12.99083 -33.55393,13.95584 0,1.47231 8.18053,4.77756 11.88398,4.8016 1.86119,0.0121 5.23619,-0.53147 7.5,-1.20788 z"
         id="path3365"
         inkscape:connector-curvature="0" />
      <path
         style="fill:#b33d33;fill-opacity:1"
         d="m 432.21426,714.59382 c -26.68603,-2.81642 -47.2201,-7.40469 -55.25,-12.34545 -4.00059,-2.46154 -3.99453,-2.29779 -1.26918,-34.28233 1.08946,-12.78572 2.26087,-26.84677 2.60314,-31.24677 l 0.62232,-8 5.0733,-4.80894 c 4.85285,-4.59997 15.62826,-11.56492 21.12544,-13.65495 3.21952,-1.22406 3.23084,-2.34945 0.095,-9.44019 -1.375,-3.10912 -2.5,-6.06254 -2.5,-6.56316 0,-0.50062 1.95056,-1.20272 4.33456,-1.56022 6.67042,-1.00029 6.79877,-1.24465 4.34911,-8.27984 -1.76494,-5.06871 -2.66306,-6.36952 -4.68367,-6.78367 -6.47773,-1.3277 -20.10047,-6.98154 -25.55671,-10.60678 -10.24314,-6.80576 -13.74398,-14.79841 -9.46956,-21.61959 3.47205,-5.54075 16.15264,-10.2742 31.33523,-11.69693 l 7.67591,-0.71929 2.06711,-7.13322 c 4.99645,-17.24176 7.14797,-22.71813 9.54151,-24.28644 6.05807,-3.9694 16.25386,-5.71304 33.40651,-5.71304 17.15265,0 27.34844,1.74364 33.40651,5.71304 2.39354,1.56831 4.54506,7.04468 9.54151,24.28644 l 2.06711,7.13322 7.67591,0.71929 c 15.18259,1.42273 27.86318,6.15618 31.33523,11.69693 4.27442,6.82118 0.77358,14.81383 -9.46956,21.61959 -5.45624,3.62524 -19.07898,9.27907 -25.55671,10.60678 -2.02061,0.41415 -2.91873,1.71496 -4.68366,6.78367 -2.44967,7.03519 -2.32132,7.27955 4.3491,8.27984 2.38401,0.3575 4.33456,1.0596 4.33456,1.56022 0,0.50062 -1.125,3.45404 -2.5,6.56316 -1.375,3.10912 -2.5,6.19875 -2.5,6.86585 0,0.6671 3.38265,2.95305 7.517,5.0799 7.78229,4.00346 18.74718,12.21491 20.3768,15.25989 0.86192,1.61051 3.06336,17.03073 8.02306,56.19844 l 1.96273,15.5 -2.1898,1.72699 c -2.13047,1.68019 -12.77349,5.52751 -21.51491,7.77736 -11.95398,3.0767 -33.37396,5.11873 -57.17488,5.45067 -13.475,0.18793 -26.3,0.15172 -28.5,-0.0805 z m 14.18428,-141.46376 c 2.37364,-1.14906 4.31572,-2.38723 4.31572,-2.75149 0,-0.92013 -34.00847,-14.48416 -34.66626,-13.82637 -0.99954,0.99954 1.66709,7.21239 4.64767,10.82835 6.21556,7.54055 17.01351,9.95596 25.70287,5.74951 z m 37.00121,-5.8e-4 c 2.37431,-1.14939 5.66462,-3.72477 7.31179,-5.72308 2.99817,-3.63729 5.67137,-9.85182 4.66898,-10.8542 -0.65074,-0.65075 -34.66626,12.90108 -34.66626,13.81108 0,0.35584 1.9125,1.59366 4.25,2.7507 5.54211,2.7433 12.78802,2.74939 18.43549,0.0155 z"
         id="path3363"
         inkscape:connector-curvature="0" />
    </g>
  </g>
</svg>
