<?xml version="1.0" encoding="UTF-8" standalone="no"?>
<!-- Generated by IcoMoon.io -->

<svg
   xmlns:dc="http://purl.org/dc/elements/1.1/"
   xmlns:cc="http://creativecommons.org/ns#"
   xmlns:rdf="http://www.w3.org/1999/02/22-rdf-syntax-ns#"
   xmlns:svg="http://www.w3.org/2000/svg"
   xmlns="http://www.w3.org/2000/svg"
   xmlns:sodipodi="http://sodipodi.sourceforge.net/DTD/sodipodi-0.dtd"
   xmlns:inkscape="http://www.inkscape.org/namespaces/inkscape"
   version="1.1"
   width="32"
   height="32"
   viewBox="0 0 32 32"
   id="svg2"
   inkscape:version="0.91 r13725"
   sodipodi:docname="arrest.svg"
   inkscape:export-filename="C:\Users\Christoph\Documents\CrimeWatch\www\img\shooting.png"
   inkscape:export-xdpi="90"
   inkscape:export-ydpi="90">
  <metadata
     id="metadata10">
    <rdf:RDF>
      <cc:Work
         rdf:about="">
        <dc:format>image/svg+xml</dc:format>
        <dc:type
           rdf:resource="http://purl.org/dc/dcmitype/StillImage" />
        <dc:title></dc:title>
      </cc:Work>
    </rdf:RDF>
  </metadata>
  <defs
     id="defs8" />
  <sodipodi:namedview
     pagecolor="#ffffff"
     bordercolor="#666666"
     borderopacity="1"
     objecttolerance="10"
     gridtolerance="10"
     guidetolerance="10"
     inkscape:pageopacity="0"
     inkscape:pageshadow="2"
     inkscape:window-width="1280"
     inkscape:window-height="657"
     id="namedview6"
     showgrid="false"
     inkscape:zoom="20.85965"
     inkscape:cx="9.9551417"
     inkscape:cy="16.830548"
     inkscape:window-x="-8"
     inkscape:window-y="-8"
     inkscape:window-maximized="1"
     inkscape:current-layer="layer1" />
  <g
     inkscape:groupmode="layer"
     id="layer2"
     inkscape:label="Layer 2">
    <circle
       style="fill:#ffffff;fill-opacity:1"
       id="path4276"
       cx="15.779661"
       cy="10.661016"
       r="7.9152541" />
  </g>
  <g
     inkscape:groupmode="layer"
     id="layer1"
     inkscape:label="Layer 1">
    <path
       d="M 16,0 C 10.477,0 6,4.477 6,10 6,20 16,32 16,32 16,32 26,20 26,10 26,4.477 21.523,0 16,0 Z m 0,16.125 c -3.383,0 -6.125,-2.742 -6.125,-6.125 0,-3.383 2.742,-6.125 6.125,-6.125 3.383,0 6.125,2.742 6.125,6.125 0,3.383 -2.742,6.125 -6.125,6.125 z"
       id="path4"
       style="fill:#b33d33;fill-opacity:1"
       inkscape:connector-curvature="0"
       sodipodi:nodetypes="sscsssssss" />
    <g
       id="g4881"
       transform="matrix(0.0800633,0,0,0.0800633,11.790851,5.6686606)"
       style="fill:#444444;fill-opacity:1">
      <g
         id="g4841"
         style="fill:#444444;fill-opacity:1">
        <path
           id="path4843"
           d="M 104,10 104,0 2.166,0 l 0,10 2.34,0 0,86.166 -2.34,0 0,10 101.834,0 0,-10 -1.994,0 0,-86.166 1.994,0 z M 9.506,96.166 9.506,10 l 13.5,0 0,54.708 c -1.721,1.384 -3.301,2.972 -4.708,4.685 -1.927,2.344 -2.303,5.576 0,7.881 1.163,1.162 2.998,1.763 4.708,1.597 l 0,17.297 -13.5,-0.002 0,0 z M 43.817,70.439 c -1.3,1.502 -2.986,2.33 -4.748,2.33 -0.208,0 -0.418,-0.013 -0.629,-0.037 -0.401,-0.045 -0.8,-0.068 -1.184,-0.068 -1.513,0 -2.848,0.365 -4.088,1.01 1.024,9.318 2.131,22.088 2.131,22.088 0,0.157 0.004,1.426 0.011,2.321 l -0.07,0 c -0.016,-0.233 -0.024,-0.468 -0.024,-0.703 0,0 -0.039,-0.446 -0.106,-1.214 l -7.104,0 0,-20.967 c 2.756,-2.867 5.859,-4.794 10.232,-4.295 3.024,0.346 5.572,-2.797 5.572,-5.572 0,-3.299 -2.556,-5.229 -5.572,-5.572 -3.114,-0.354 -6.067,0.118 -8.806,1.174 -0.021,-0.369 -0.068,-0.722 -0.152,-1.045 3.1,-1.189 6.309,-1.644 9.5,-1.279 4.129,0.471 6.902,3.309 6.902,7.062 10e-4,1.659 -0.679,3.396 -1.865,4.767 z m 2.86,-22.883 c -0.056,-0.007 -0.115,-0.004 -0.171,-0.009 l 0,-0.766 c -1.906,-0.801 -3.605,-1.988 -5,-3.472 l 0,5.149 c -0.604,0.202 -1.171,0.435 -1.721,0.683 l -0.02,-10e-4 c -0.563,0.093 -1.445,0.633 -2.495,1.434 -0.435,0.309 -0.845,0.637 -1.227,0.987 -2.661,2.236 -5.935,5.52 -8.038,7.693 l 0,-49.254 13.5,0 0,11.815 c -2.4,2.604 -3.879,6.071 -3.879,9.894 0,7.924 6.31,14.359 14.178,14.594 -1.818,0.11 -3.547,0.538 -5.127,1.253 z m -0.171,-29.292 0,-8.264 13.5,0 0,9.34 c -2.251,-1.416 -4.906,-2.248 -7.764,-2.248 -2.037,0 -3.974,0.419 -5.736,1.172 z m 20.351,13.445 c 0,-2.584 -0.676,-5.007 -1.853,-7.113 l 0,-14.596 13.5,0 0,49.773 -5.796,-5.209 c -1.132,-1.591 -2.62,-2.911 -4.408,-3.96 l -0.021,-0.021 -0.014,0 c -0.998,-0.584 -2.082,-1.092 -3.26,-1.506 l 0,-8.804 c -1.186,2.184 -2.91,4.026 -5,5.357 l 0,2.322 c -0.164,-10e-4 -0.329,-0.003 -0.488,0.009 -1.879,-1 -4.002,-1.599 -6.256,-1.688 7.596,-0.526 13.596,-6.836 13.596,-14.564 z m 6.411,64.457 c 0,-0.207 0.002,-0.357 0.002,-0.404 0,0 0.244,-10.031 0.777,-18.795 -2.426,-2.628 -4.879,-4.303 -8.152,-4.303 -0.383,0 -0.781,0.023 -1.184,0.068 -0.211,0.024 -0.421,0.037 -0.629,0.037 -3.785,-0.002 -6.613,-3.748 -6.613,-7.1 0,-3.754 2.773,-6.592 6.902,-7.062 3.913,-0.447 7.852,0.33 11.582,2.197 l 0,1.547 c -3.528,-2.008 -7.504,-3.082 -11.784,-2.594 -3.017,0.344 -5.571,2.273 -5.571,5.572 0,2.775 2.547,5.918 5.571,5.572 5.362,-0.612 8.815,2.422 12.06,6.367 0.604,0.732 1.402,1.201 2.277,1.439 l 0,17.454 -5.238,0 0,0.005 z m 23.738,0 -13.5,0 0,-18.391 c 0.215,-0.154 0.42,-0.319 0.604,-0.504 2.304,-2.304 1.928,-5.537 0,-7.881 -0.195,-0.238 -0.399,-0.471 -0.604,-0.703 l 0,-58.687 13.5,0 0,86.166 z"
           inkscape:connector-curvature="0"
           style="fill:#444444;fill-opacity:1" />
      </g>
      <g
         id="g4845"
         style="fill:#444444;fill-opacity:1" />
      <g
         id="g4847"
         style="fill:#444444;fill-opacity:1" />
      <g
         id="g4849"
         style="fill:#444444;fill-opacity:1" />
      <g
         id="g4851"
         style="fill:#444444;fill-opacity:1" />
      <g
         id="g4853"
         style="fill:#444444;fill-opacity:1" />
      <g
         id="g4855"
         style="fill:#444444;fill-opacity:1" />
      <g
         id="g4857"
         style="fill:#444444;fill-opacity:1" />
      <g
         id="g4859"
         style="fill:#444444;fill-opacity:1" />
      <g
         id="g4861"
         style="fill:#444444;fill-opacity:1" />
      <g
         id="g4863"
         style="fill:#444444;fill-opacity:1" />
      <g
         id="g4865"
         style="fill:#444444;fill-opacity:1" />
      <g
         id="g4867"
         style="fill:#444444;fill-opacity:1" />
      <g
         id="g4869"
         style="fill:#444444;fill-opacity:1" />
      <g
         id="g4871"
         style="fill:#444444;fill-opacity:1" />
      <g
         id="g4873"
         style="fill:#444444;fill-opacity:1" />
    </g>
  </g>
</svg>
