<?xml version="1.0" encoding="UTF-8" standalone="no"?>
<!-- Generated by IcoMoon.io -->

<svg
   xmlns:dc="http://purl.org/dc/elements/1.1/"
   xmlns:cc="http://creativecommons.org/ns#"
   xmlns:rdf="http://www.w3.org/1999/02/22-rdf-syntax-ns#"
   xmlns:svg="http://www.w3.org/2000/svg"
   xmlns="http://www.w3.org/2000/svg"
   xmlns:sodipodi="http://sodipodi.sourceforge.net/DTD/sodipodi-0.dtd"
   xmlns:inkscape="http://www.inkscape.org/namespaces/inkscape"
   version="1.1"
   width="32"
   height="32"
   viewBox="0 0 32 32"
   id="svg2"
   inkscape:version="0.91 r13725"
   sodipodi:docname="assault.svg"
   inkscape:export-filename="C:\Users\Christoph\Documents\CrimeWatch\www\img\assault.png"
   inkscape:export-xdpi="135"
   inkscape:export-ydpi="135">
  <metadata
     id="metadata10">
    <rdf:RDF>
      <cc:Work
         rdf:about="">
        <dc:format>image/svg+xml</dc:format>
        <dc:type
           rdf:resource="http://purl.org/dc/dcmitype/StillImage" />
        <dc:title />
      </cc:Work>
    </rdf:RDF>
  </metadata>
  <defs
     id="defs8" />
  <sodipodi:namedview
     pagecolor="#ffffff"
     bordercolor="#666666"
     borderopacity="1"
     objecttolerance="10"
     gridtolerance="10"
     guidetolerance="10"
     inkscape:pageopacity="0"
     inkscape:pageshadow="2"
     inkscape:window-width="1280"
     inkscape:window-height="657"
     id="namedview6"
     showgrid="false"
     inkscape:zoom="20.85965"
     inkscape:cx="13.32346"
     inkscape:cy="21.144628"
     inkscape:window-x="-8"
     inkscape:window-y="-8"
     inkscape:window-maximized="1"
     inkscape:current-layer="layer1" />
  <g
     inkscape:groupmode="layer"
     id="layer2"
     inkscape:label="Layer 2">
    <circle
       style="fill:#ffffff;fill-opacity:1"
       id="path4276"
       cx="15.779661"
       cy="10.661016"
       r="7.9152541" />
  </g>
  <g
     inkscape:groupmode="layer"
     id="layer1"
     inkscape:label="Layer 1">
    <path
       d="M 16,0 C 10.477,0 6,4.477 6,10 6,20 16,32 16,32 16,32 26,20 26,10 26,4.477 21.523,0 16,0 Z m 0,16.125 c -3.383,0 -6.125,-2.742 -6.125,-6.125 0,-3.383 2.742,-6.125 6.125,-6.125 3.383,0 6.125,2.742 6.125,6.125 0,3.383 -2.742,6.125 -6.125,6.125 z"
       id="path4"
       style="fill:#b33d33;fill-opacity:1"
       inkscape:connector-curvature="0"
       sodipodi:nodetypes="sscsssssss" />
    <g
       id="g4697"
       transform="matrix(0.08354055,0,0,0.08354055,11.250903,4.5822236)"
       style="fill:#444444;fill-opacity:1">
      <g
         id="g4649"
         style="fill:#444444;fill-opacity:1">
        <g
           id="g4651"
           style="fill:#444444;fill-opacity:1">
          <circle
             id="circle4653"
             r="11.857"
             cy="14.601"
             cx="26.044001"
             style="fill:#444444;fill-opacity:1" />
          <path
             id="path4655"
             d="m 56.834,28.996 -19.11,0.313 -13.24,-1.892 C 23.345,26.845 22.093,26.454 20.754,26.313 14.779,25.683 9.432,30.011 8.801,35.981 L 6.392,58.767 c -0.169,1.605 0.029,3.162 0.513,4.599 -0.115,0.613 -0.133,1.255 -0.023,1.906 l 2.264,13.435 -8.958,26.227 c -0.585,1.732 0.234,3.669 1.94,4.42 1.804,0.794 3.91,-0.025 4.703,-1.829 L 18.568,80.858 c 0.254,-0.584 0.381,-1.254 0.324,-1.936 l -0.033,-0.408 -0.551,-6.74 4.18,8.841 -0.271,24.087 c -0.017,1.816 1.353,3.396 3.197,3.59 1.959,0.206 3.716,-1.217 3.922,-3.178 L 31.985,79.85 c 0.056,-0.547 -0.006,-1.135 -0.207,-1.687 l -0.149,-0.416 -4.71,-12.971 c 0.568,-1.135 0.952,-2.388 1.095,-3.726 l 1.029,-9.748 2.076,1.82 0.344,0.303 c 1.12,0.98 2.762,1.25 4.183,0.555 l 11.752,-5.75 c 1.438,-0.702 2.19,-2.364 1.702,-3.94 -0.538,-1.742 -2.387,-2.717 -4.129,-2.178 l -9.699,2.999 -5.043,-5.026 0.193,-1.819 c 0.021,-0.217 0.024,-0.431 0.035,-0.646 l 6.616,0.244 0.455,0.017 c 0.07,0.002 0.144,-10e-4 0.214,-0.009 l 19.532,-2.306 c 1.652,-0.202 2.937,-1.625 2.908,-3.327 -0.03,-1.821 -1.53,-3.273 -3.348,-3.243 z"
             inkscape:connector-curvature="0"
             style="fill:#444444;fill-opacity:1" />
          <circle
             id="circle4657"
             r="11.857"
             cy="16.691999"
             cx="90.087997"
             style="fill:#444444;fill-opacity:1" />
          <path
             id="path4659"
             d="m 113.115,106.052 -6.166,-25.034 2.302,-13.656 c 0.024,-0.147 0.046,-0.31 0.059,-0.461 0.04,-0.496 0.007,-0.979 -0.08,-1.446 0.482,-1.436 0.683,-2.992 0.512,-4.598 l -2.407,-22.786 c -0.631,-5.97 -5.979,-10.297 -11.953,-9.668 -2.768,0.292 -5.172,1.607 -6.903,3.519 l -5.403,1.43 -9.93,-6.207 c -1.369,-0.857 -3.195,-0.602 -4.269,0.667 -1.178,1.392 -1.003,3.474 0.388,4.651 l 10.592,8.958 c 0.456,0.383 1.017,0.636 1.615,0.758 L 79.337,43.617 68.81,37.185 c -1.39,-0.851 -3.229,-0.562 -4.283,0.74 -1.146,1.416 -0.928,3.493 0.488,4.639 l 11.959,9.677 c 1.223,0.985 2.98,1.175 4.417,0.336 l 0.354,-0.208 4.935,-2.882 1.443,13.653 c 0.141,1.337 0.524,2.589 1.094,3.725 l -4.709,12.971 -0.156,0.43 c -0.135,0.375 -0.207,0.781 -0.205,1.203 l 0.144,25.382 c 0.016,1.815 1.409,3.373 3.256,3.536 1.965,0.173 3.695,-1.279 3.869,-3.243 l 2.129,-24.22 4.282,-9.062 -0.55,6.74 -0.036,0.44 c -0.039,0.5 0.021,1.017 0.197,1.521 l 8.844,25.512 c 0.603,1.716 2.426,2.741 4.228,2.298 1.909,-0.472 3.078,-2.407 2.605,-4.321 z"
             inkscape:connector-curvature="0"
             style="fill:#444444;fill-opacity:1" />
        </g>
      </g>
      <g
         id="g4661"
         style="fill:#444444;fill-opacity:1" />
      <g
         id="g4663"
         style="fill:#444444;fill-opacity:1" />
      <g
         id="g4665"
         style="fill:#444444;fill-opacity:1" />
      <g
         id="g4667"
         style="fill:#444444;fill-opacity:1" />
      <g
         id="g4669"
         style="fill:#444444;fill-opacity:1" />
      <g
         id="g4671"
         style="fill:#444444;fill-opacity:1" />
      <g
         id="g4673"
         style="fill:#444444;fill-opacity:1" />
      <g
         id="g4675"
         style="fill:#444444;fill-opacity:1" />
      <g
         id="g4677"
         style="fill:#444444;fill-opacity:1" />
      <g
         id="g4679"
         style="fill:#444444;fill-opacity:1" />
      <g
         id="g4681"
         style="fill:#444444;fill-opacity:1" />
      <g
         id="g4683"
         style="fill:#444444;fill-opacity:1" />
      <g
         id="g4685"
         style="fill:#444444;fill-opacity:1" />
      <g
         id="g4687"
         style="fill:#444444;fill-opacity:1" />
      <g
         id="g4689"
         style="fill:#444444;fill-opacity:1" />
    </g>
  </g>
</svg>
