<?xml version="1.0" encoding="UTF-8" standalone="no"?>
<!-- Generated by IcoMoon.io -->

<svg
   xmlns:dc="http://purl.org/dc/elements/1.1/"
   xmlns:cc="http://creativecommons.org/ns#"
   xmlns:rdf="http://www.w3.org/1999/02/22-rdf-syntax-ns#"
   xmlns:svg="http://www.w3.org/2000/svg"
   xmlns="http://www.w3.org/2000/svg"
   xmlns:sodipodi="http://sodipodi.sourceforge.net/DTD/sodipodi-0.dtd"
   xmlns:inkscape="http://www.inkscape.org/namespaces/inkscape"
   version="1.1"
   width="32"
   height="32"
   viewBox="0 0 32 32"
   id="svg2"
   inkscape:version="0.91 r13725"
   sodipodi:docname="burglary.svg"
   inkscape:export-filename="C:\Users\Christoph\Documents\CrimeWatch\www\img\arson.png"
   inkscape:export-xdpi="90"
   inkscape:export-ydpi="90">
  <metadata
     id="metadata10">
    <rdf:RDF>
      <cc:Work
         rdf:about="">
        <dc:format>image/svg+xml</dc:format>
        <dc:type
           rdf:resource="http://purl.org/dc/dcmitype/StillImage" />
        <dc:title></dc:title>
      </cc:Work>
    </rdf:RDF>
  </metadata>
  <defs
     id="defs8" />
  <sodipodi:namedview
     pagecolor="#ffffff"
     bordercolor="#666666"
     borderopacity="1"
     objecttolerance="10"
     gridtolerance="10"
     guidetolerance="10"
     inkscape:pageopacity="0"
     inkscape:pageshadow="2"
     inkscape:window-width="1280"
     inkscape:window-height="657"
     id="namedview6"
     showgrid="false"
     inkscape:zoom="14.75"
     inkscape:cx="11.229146"
     inkscape:cy="24.580265"
     inkscape:window-x="-8"
     inkscape:window-y="-8"
     inkscape:window-maximized="1"
     inkscape:current-layer="layer1" />
  <g
     inkscape:groupmode="layer"
     id="layer2"
     inkscape:label="Layer 2">
    <circle
       style="fill:#ffffff;fill-opacity:1"
       id="path4276"
       cx="15.779661"
       cy="10.661016"
       r="7.9152541" />
  </g>
  <g
     inkscape:groupmode="layer"
     id="layer1"
     inkscape:label="Layer 1">
    <path
       d="M 16,0 C 10.477,0 6,4.477 6,10 6,20 16,32 16,32 16,32 26,20 26,10 26,4.477 21.523,0 16,0 Z m 0,16.125 c -3.383,0 -6.125,-2.742 -6.125,-6.125 0,-3.383 2.742,-6.125 6.125,-6.125 3.383,0 6.125,2.742 6.125,6.125 0,3.383 -2.742,6.125 -6.125,6.125 z"
       id="path4"
       style="fill:#b33d33;fill-opacity:1"
       inkscape:connector-curvature="0"
       sodipodi:nodetypes="sscsssssss" />
    <g
       id="g4626"
       transform="matrix(0.0760659,0,0,0.0760659,11.369247,5.4233071)"
       style="fill:#444444;fill-opacity:1">
      <g
         id="g4580"
         style="fill:#444444;fill-opacity:1">
        <g
           id="g4582"
           style="fill:#444444;fill-opacity:1">
          <path
             id="path4584"
             d="M 67.341,63.2 55.398,67.549 48.3,59.538 c -0.096,-0.109 -0.202,-0.216 -0.313,-0.315 -0.07,-0.062 -0.144,-0.118 -0.217,-0.175 -0.883,-1.936 -2.451,-3.417 -4.783,-3.938 -4.858,-1.088 -9.678,1.972 -10.764,6.83 l -3.604,16.12 c -0.109,0.49 -0.166,0.942 -0.193,1.373 l -0.702,3.649 0.21,0 c -0.02,0.132 -0.04,0.265 -0.05,0.397 L 26.81,98.062 11.643,95.292 c -1.646,-0.303 -3.293,0.674 -3.788,2.315 -0.532,1.762 0.465,3.62 2.227,4.153 l 19.783,5.97 c 0.207,0.061 0.444,0.114 0.665,0.144 2.338,0.314 4.487,-1.326 4.801,-3.664 l 0.052,-0.379 1.709,-12.727 c 0.625,0.617 1.415,1.086 2.33,1.314 l 10.393,2.604 1.983,20.291 c 0.171,1.704 1.626,3.034 3.368,3.005 1.84,-0.031 3.305,-1.545 3.274,-3.385 L 58.05,91.367 c -0.031,-1.591 -1.011,-3.088 -2.589,-3.688 l -0.401,-0.152 -11.705,-4.446 0.283,0 c 0.021,-0.183 0.053,-0.358 0.093,-0.528 l -0.622,-0.074 c 0.504,-1.002 0.881,-2.182 1.174,-3.492 l 3.141,-9.878 4.821,4.321 0.227,0.205 c 0.843,0.754 2.083,0.984 3.18,0.489 l 11.689,-5.276 0,29.658 34.353,11.213 0,-86.215 -34.353,-11.212 0,50.908 z m 4.491,-4.509 c 1.111,0 2.013,1.037 2.013,2.313 0,1.278 -0.9,2.314 -2.013,2.314 -1.11,0 -2.012,-1.036 -2.012,-2.314 0,-1.276 0.901,-2.313 2.012,-2.313 z"
             inkscape:connector-curvature="0"
             style="fill:#444444;fill-opacity:1" />
          <polygon
             id="polygon4586"
             points="106.149,107.939 110.609,114.084 110.609,17.035 58.424,0 58.424,64.771 62.379,62.715 62.882,6.146 106.149,20.27 "
             style="fill:#444444;fill-opacity:1" />
          <circle
             id="circle4588"
             r="10.302"
             cy="45.046001"
             cx="45.987"
             style="fill:#444444;fill-opacity:1" />
        </g>
      </g>
      <g
         id="g4590"
         style="fill:#444444;fill-opacity:1" />
      <g
         id="g4592"
         style="fill:#444444;fill-opacity:1" />
      <g
         id="g4594"
         style="fill:#444444;fill-opacity:1" />
      <g
         id="g4596"
         style="fill:#444444;fill-opacity:1" />
      <g
         id="g4598"
         style="fill:#444444;fill-opacity:1" />
      <g
         id="g4600"
         style="fill:#444444;fill-opacity:1" />
      <g
         id="g4602"
         style="fill:#444444;fill-opacity:1" />
      <g
         id="g4604"
         style="fill:#444444;fill-opacity:1" />
      <g
         id="g4606"
         style="fill:#444444;fill-opacity:1" />
      <g
         id="g4608"
         style="fill:#444444;fill-opacity:1" />
      <g
         id="g4610"
         style="fill:#444444;fill-opacity:1" />
      <g
         id="g4612"
         style="fill:#444444;fill-opacity:1" />
      <g
         id="g4614"
         style="fill:#444444;fill-opacity:1" />
      <g
         id="g4616"
         style="fill:#444444;fill-opacity:1" />
      <g
         id="g4618"
         style="fill:#444444;fill-opacity:1" />
    </g>
  </g>
</svg>
